<mxfile host="app.diagrams.net" modified="2023-10-03T09:02:54.700Z" agent="Mozilla/5.0 (Windows NT 10.0; Win64; x64) AppleWebKit/537.36 (KHTML, like Gecko) Chrome/117.0.0.0 Safari/537.36" etag="vCzepPwL8_Cu70687jdo" version="22.0.1" type="github">
  <diagram name="Page-1" id="fsIqFUjiNIn01wqL0xop">
    <mxGraphModel dx="2284" dy="902" grid="1" gridSize="10" guides="1" tooltips="1" connect="1" arrows="1" fold="1" page="1" pageScale="1" pageWidth="850" pageHeight="1100" math="0" shadow="0">
      <root>
        <mxCell id="0" />
        <mxCell id="1" parent="0" />
        <mxCell id="V5jfjw6TKSXS01mup-eG-1" value="pembeli" style="rounded=0;whiteSpace=wrap;html=1;movable=1;resizable=1;rotatable=1;deletable=1;editable=1;locked=0;connectable=1;" vertex="1" parent="1">
          <mxGeometry x="-110" y="380" width="120" height="60" as="geometry" />
        </mxCell>
        <mxCell id="V5jfjw6TKSXS01mup-eG-2" value="pembelian" style="rhombus;whiteSpace=wrap;html=1;" vertex="1" parent="1">
          <mxGeometry x="270" y="350" width="130" height="120" as="geometry" />
        </mxCell>
        <mxCell id="V5jfjw6TKSXS01mup-eG-3" value="produk" style="rounded=0;whiteSpace=wrap;html=1;" vertex="1" parent="1">
          <mxGeometry x="640" y="380" width="120" height="60" as="geometry" />
        </mxCell>
        <mxCell id="V5jfjw6TKSXS01mup-eG-4" value="penilaian" style="rounded=0;whiteSpace=wrap;html=1;" vertex="1" parent="1">
          <mxGeometry x="270" y="570" width="125" height="60" as="geometry" />
        </mxCell>
        <mxCell id="V5jfjw6TKSXS01mup-eG-5" value="" style="ellipse;whiteSpace=wrap;html=1;movable=1;resizable=1;rotatable=1;deletable=1;editable=1;locked=0;connectable=1;" vertex="1" parent="1">
          <mxGeometry x="-250" y="490" width="120" height="80" as="geometry" />
        </mxCell>
        <mxCell id="V5jfjw6TKSXS01mup-eG-6" value="" style="ellipse;whiteSpace=wrap;html=1;" vertex="1" parent="1">
          <mxGeometry y="230" width="120" height="80" as="geometry" />
        </mxCell>
        <mxCell id="V5jfjw6TKSXS01mup-eG-7" value="" style="ellipse;whiteSpace=wrap;html=1;movable=1;resizable=1;rotatable=1;deletable=1;editable=1;locked=0;connectable=1;" vertex="1" parent="1">
          <mxGeometry x="-290" y="380" width="120" height="80" as="geometry" />
        </mxCell>
        <mxCell id="V5jfjw6TKSXS01mup-eG-8" value="" style="ellipse;whiteSpace=wrap;html=1;movable=1;resizable=1;rotatable=1;deletable=1;editable=1;locked=0;connectable=1;" vertex="1" parent="1">
          <mxGeometry x="-100" y="530" width="120" height="80" as="geometry" />
        </mxCell>
        <mxCell id="V5jfjw6TKSXS01mup-eG-9" value="" style="ellipse;whiteSpace=wrap;html=1;movable=1;resizable=1;rotatable=1;deletable=1;editable=1;locked=0;connectable=1;" vertex="1" parent="1">
          <mxGeometry x="-250" y="240" width="120" height="80" as="geometry" />
        </mxCell>
        <mxCell id="V5jfjw6TKSXS01mup-eG-10" value="" style="ellipse;whiteSpace=wrap;html=1;movable=1;resizable=1;rotatable=1;deletable=1;editable=1;locked=0;connectable=1;" vertex="1" parent="1">
          <mxGeometry x="-130" y="190" width="120" height="80" as="geometry" />
        </mxCell>
        <mxCell id="V5jfjw6TKSXS01mup-eG-11" value="" style="endArrow=none;html=1;rounded=0;entryX=0.408;entryY=1;entryDx=0;entryDy=0;entryPerimeter=0;movable=0;resizable=0;rotatable=0;deletable=0;editable=0;locked=1;connectable=0;" edge="1" parent="1" source="V5jfjw6TKSXS01mup-eG-1" target="V5jfjw6TKSXS01mup-eG-6">
          <mxGeometry width="50" height="50" relative="1" as="geometry">
            <mxPoint x="400" y="370" as="sourcePoint" />
            <mxPoint x="430" y="350" as="targetPoint" />
          </mxGeometry>
        </mxCell>
        <mxCell id="V5jfjw6TKSXS01mup-eG-12" value="" style="endArrow=none;html=1;rounded=0;entryX=0.633;entryY=1;entryDx=0;entryDy=0;entryPerimeter=0;exitX=0.5;exitY=0;exitDx=0;exitDy=0;movable=1;resizable=1;rotatable=1;deletable=1;editable=1;locked=0;connectable=1;" edge="1" parent="1" source="V5jfjw6TKSXS01mup-eG-1" target="V5jfjw6TKSXS01mup-eG-10">
          <mxGeometry width="50" height="50" relative="1" as="geometry">
            <mxPoint x="-50" y="320" as="sourcePoint" />
            <mxPoint x="39" y="260" as="targetPoint" />
          </mxGeometry>
        </mxCell>
        <mxCell id="V5jfjw6TKSXS01mup-eG-13" value="" style="endArrow=none;html=1;rounded=0;entryX=1;entryY=1;entryDx=0;entryDy=0;movable=1;resizable=1;rotatable=1;deletable=1;editable=1;locked=0;connectable=1;" edge="1" parent="1" source="V5jfjw6TKSXS01mup-eG-1" target="V5jfjw6TKSXS01mup-eG-9">
          <mxGeometry width="50" height="50" relative="1" as="geometry">
            <mxPoint x="-100" y="320" as="sourcePoint" />
            <mxPoint x="-11" y="260" as="targetPoint" />
          </mxGeometry>
        </mxCell>
        <mxCell id="V5jfjw6TKSXS01mup-eG-15" value="" style="endArrow=none;html=1;rounded=0;entryX=0.392;entryY=0.983;entryDx=0;entryDy=0;entryPerimeter=0;exitX=0.425;exitY=0.025;exitDx=0;exitDy=0;exitPerimeter=0;movable=1;resizable=1;rotatable=1;deletable=1;editable=1;locked=0;connectable=1;" edge="1" parent="1" source="V5jfjw6TKSXS01mup-eG-8" target="V5jfjw6TKSXS01mup-eG-1">
          <mxGeometry width="50" height="50" relative="1" as="geometry">
            <mxPoint x="-80" y="500" as="sourcePoint" />
            <mxPoint x="9" y="440" as="targetPoint" />
          </mxGeometry>
        </mxCell>
        <mxCell id="V5jfjw6TKSXS01mup-eG-16" value="" style="endArrow=none;html=1;rounded=0;movable=1;resizable=1;rotatable=1;deletable=1;editable=1;locked=0;connectable=1;" edge="1" parent="1" source="V5jfjw6TKSXS01mup-eG-5">
          <mxGeometry width="50" height="50" relative="1" as="geometry">
            <mxPoint x="-90" y="470" as="sourcePoint" />
            <mxPoint x="-80" y="440" as="targetPoint" />
          </mxGeometry>
        </mxCell>
        <mxCell id="V5jfjw6TKSXS01mup-eG-17" value="" style="endArrow=none;html=1;rounded=0;movable=1;resizable=1;rotatable=1;deletable=1;editable=1;locked=0;connectable=1;" edge="1" parent="1" source="V5jfjw6TKSXS01mup-eG-7" target="V5jfjw6TKSXS01mup-eG-1">
          <mxGeometry width="50" height="50" relative="1" as="geometry">
            <mxPoint x="-140" y="420" as="sourcePoint" />
            <mxPoint x="-51" y="360" as="targetPoint" />
          </mxGeometry>
        </mxCell>
        <mxCell id="V5jfjw6TKSXS01mup-eG-18" value="" style="ellipse;whiteSpace=wrap;html=1;" vertex="1" parent="1">
          <mxGeometry x="275" y="120" width="120" height="80" as="geometry" />
        </mxCell>
        <mxCell id="V5jfjw6TKSXS01mup-eG-19" value="" style="ellipse;whiteSpace=wrap;html=1;" vertex="1" parent="1">
          <mxGeometry x="425" y="120" width="120" height="80" as="geometry" />
        </mxCell>
        <mxCell id="V5jfjw6TKSXS01mup-eG-20" value="" style="ellipse;whiteSpace=wrap;html=1;" vertex="1" parent="1">
          <mxGeometry x="120" y="120" width="120" height="80" as="geometry" />
        </mxCell>
        <mxCell id="V5jfjw6TKSXS01mup-eG-21" value="" style="endArrow=none;html=1;rounded=0;" edge="1" parent="1" source="V5jfjw6TKSXS01mup-eG-2" target="V5jfjw6TKSXS01mup-eG-19">
          <mxGeometry width="50" height="50" relative="1" as="geometry">
            <mxPoint x="400" y="370" as="sourcePoint" />
            <mxPoint x="450" y="320" as="targetPoint" />
          </mxGeometry>
        </mxCell>
        <mxCell id="V5jfjw6TKSXS01mup-eG-22" value="" style="endArrow=none;html=1;rounded=0;exitX=0.5;exitY=0;exitDx=0;exitDy=0;" edge="1" parent="1" source="V5jfjw6TKSXS01mup-eG-2" target="V5jfjw6TKSXS01mup-eG-18">
          <mxGeometry width="50" height="50" relative="1" as="geometry">
            <mxPoint x="320" y="260" as="sourcePoint" />
            <mxPoint x="425" y="86" as="targetPoint" />
          </mxGeometry>
        </mxCell>
        <mxCell id="V5jfjw6TKSXS01mup-eG-23" value="" style="endArrow=none;html=1;rounded=0;exitX=0.323;exitY=0.183;exitDx=0;exitDy=0;exitPerimeter=0;" edge="1" parent="1" source="V5jfjw6TKSXS01mup-eG-2" target="V5jfjw6TKSXS01mup-eG-20">
          <mxGeometry width="50" height="50" relative="1" as="geometry">
            <mxPoint x="200" y="250" as="sourcePoint" />
            <mxPoint x="305" y="76" as="targetPoint" />
          </mxGeometry>
        </mxCell>
        <mxCell id="V5jfjw6TKSXS01mup-eG-24" value="" style="ellipse;whiteSpace=wrap;html=1;" vertex="1" parent="1">
          <mxGeometry x="420" y="770" width="120" height="80" as="geometry" />
        </mxCell>
        <mxCell id="V5jfjw6TKSXS01mup-eG-25" value="" style="ellipse;whiteSpace=wrap;html=1;" vertex="1" parent="1">
          <mxGeometry x="275" y="780" width="120" height="80" as="geometry" />
        </mxCell>
        <mxCell id="V5jfjw6TKSXS01mup-eG-26" value="" style="ellipse;whiteSpace=wrap;html=1;" vertex="1" parent="1">
          <mxGeometry x="130" y="770" width="120" height="80" as="geometry" />
        </mxCell>
        <mxCell id="V5jfjw6TKSXS01mup-eG-27" value="" style="ellipse;whiteSpace=wrap;html=1;" vertex="1" parent="1">
          <mxGeometry x="580" y="500" width="120" height="80" as="geometry" />
        </mxCell>
        <mxCell id="V5jfjw6TKSXS01mup-eG-28" value="" style="ellipse;whiteSpace=wrap;html=1;" vertex="1" parent="1">
          <mxGeometry x="720" y="500" width="120" height="80" as="geometry" />
        </mxCell>
        <mxCell id="V5jfjw6TKSXS01mup-eG-29" value="" style="ellipse;whiteSpace=wrap;html=1;" vertex="1" parent="1">
          <mxGeometry x="720" y="240" width="120" height="80" as="geometry" />
        </mxCell>
        <mxCell id="V5jfjw6TKSXS01mup-eG-30" value="" style="ellipse;whiteSpace=wrap;html=1;" vertex="1" parent="1">
          <mxGeometry x="580" y="240" width="120" height="80" as="geometry" />
        </mxCell>
        <mxCell id="V5jfjw6TKSXS01mup-eG-31" value="" style="endArrow=none;html=1;rounded=0;entryX=0.25;entryY=1;entryDx=0;entryDy=0;" edge="1" parent="1" source="V5jfjw6TKSXS01mup-eG-26" target="V5jfjw6TKSXS01mup-eG-4">
          <mxGeometry width="50" height="50" relative="1" as="geometry">
            <mxPoint x="250" y="750" as="sourcePoint" />
            <mxPoint x="330" y="660" as="targetPoint" />
          </mxGeometry>
        </mxCell>
        <mxCell id="V5jfjw6TKSXS01mup-eG-32" value="" style="endArrow=none;html=1;rounded=0;entryX=0.5;entryY=1;entryDx=0;entryDy=0;exitX=0.5;exitY=0;exitDx=0;exitDy=0;" edge="1" parent="1" source="V5jfjw6TKSXS01mup-eG-25" target="V5jfjw6TKSXS01mup-eG-4">
          <mxGeometry width="50" height="50" relative="1" as="geometry">
            <mxPoint x="320" y="700" as="sourcePoint" />
            <mxPoint x="408" y="557" as="targetPoint" />
          </mxGeometry>
        </mxCell>
        <mxCell id="V5jfjw6TKSXS01mup-eG-33" value="" style="endArrow=none;html=1;rounded=0;entryX=0.75;entryY=1;entryDx=0;entryDy=0;" edge="1" parent="1" source="V5jfjw6TKSXS01mup-eG-24" target="V5jfjw6TKSXS01mup-eG-4">
          <mxGeometry width="50" height="50" relative="1" as="geometry">
            <mxPoint x="390" y="680" as="sourcePoint" />
            <mxPoint x="478" y="537" as="targetPoint" />
          </mxGeometry>
        </mxCell>
        <mxCell id="V5jfjw6TKSXS01mup-eG-34" value="" style="endArrow=none;html=1;rounded=0;entryX=0.5;entryY=1;entryDx=0;entryDy=0;exitX=0.25;exitY=0;exitDx=0;exitDy=0;" edge="1" parent="1" source="V5jfjw6TKSXS01mup-eG-3" target="V5jfjw6TKSXS01mup-eG-30">
          <mxGeometry width="50" height="50" relative="1" as="geometry">
            <mxPoint x="570" y="340" as="sourcePoint" />
            <mxPoint x="658" y="197" as="targetPoint" />
          </mxGeometry>
        </mxCell>
        <mxCell id="V5jfjw6TKSXS01mup-eG-35" value="" style="endArrow=none;html=1;rounded=0;entryX=0.5;entryY=1;entryDx=0;entryDy=0;exitX=0.75;exitY=0;exitDx=0;exitDy=0;" edge="1" parent="1" source="V5jfjw6TKSXS01mup-eG-3" target="V5jfjw6TKSXS01mup-eG-29">
          <mxGeometry width="50" height="50" relative="1" as="geometry">
            <mxPoint x="780" y="350" as="sourcePoint" />
            <mxPoint x="868" y="207" as="targetPoint" />
          </mxGeometry>
        </mxCell>
        <mxCell id="V5jfjw6TKSXS01mup-eG-36" value="" style="endArrow=none;html=1;rounded=0;entryX=0.25;entryY=1;entryDx=0;entryDy=0;exitX=0.5;exitY=0;exitDx=0;exitDy=0;" edge="1" parent="1" source="V5jfjw6TKSXS01mup-eG-27" target="V5jfjw6TKSXS01mup-eG-3">
          <mxGeometry width="50" height="50" relative="1" as="geometry">
            <mxPoint x="660" y="450" as="sourcePoint" />
            <mxPoint x="748" y="307" as="targetPoint" />
          </mxGeometry>
        </mxCell>
        <mxCell id="V5jfjw6TKSXS01mup-eG-37" value="" style="endArrow=none;html=1;rounded=0;entryX=0.75;entryY=1;entryDx=0;entryDy=0;exitX=0.5;exitY=0;exitDx=0;exitDy=0;" edge="1" parent="1" source="V5jfjw6TKSXS01mup-eG-28" target="V5jfjw6TKSXS01mup-eG-3">
          <mxGeometry width="50" height="50" relative="1" as="geometry">
            <mxPoint x="780" y="460" as="sourcePoint" />
            <mxPoint x="868" y="317" as="targetPoint" />
          </mxGeometry>
        </mxCell>
        <mxCell id="V5jfjw6TKSXS01mup-eG-38" value="" style="endArrow=none;html=1;rounded=0;entryX=0;entryY=0.5;entryDx=0;entryDy=0;" edge="1" parent="1" source="V5jfjw6TKSXS01mup-eG-1" target="V5jfjw6TKSXS01mup-eG-2">
          <mxGeometry width="50" height="50" relative="1" as="geometry">
            <mxPoint x="400" y="480" as="sourcePoint" />
            <mxPoint x="450" y="430" as="targetPoint" />
          </mxGeometry>
        </mxCell>
        <mxCell id="V5jfjw6TKSXS01mup-eG-39" value="" style="endArrow=none;html=1;rounded=0;entryX=0;entryY=0.5;entryDx=0;entryDy=0;exitX=1;exitY=0.5;exitDx=0;exitDy=0;" edge="1" parent="1" source="V5jfjw6TKSXS01mup-eG-2" target="V5jfjw6TKSXS01mup-eG-3">
          <mxGeometry width="50" height="50" relative="1" as="geometry">
            <mxPoint x="530" y="440" as="sourcePoint" />
            <mxPoint x="618" y="297" as="targetPoint" />
          </mxGeometry>
        </mxCell>
        <mxCell id="V5jfjw6TKSXS01mup-eG-40" value="" style="endArrow=none;html=1;rounded=0;entryX=0.5;entryY=1;entryDx=0;entryDy=0;exitX=0.5;exitY=0;exitDx=0;exitDy=0;" edge="1" parent="1" source="V5jfjw6TKSXS01mup-eG-4" target="V5jfjw6TKSXS01mup-eG-2">
          <mxGeometry width="50" height="50" relative="1" as="geometry">
            <mxPoint x="340" y="510" as="sourcePoint" />
            <mxPoint x="428" y="367" as="targetPoint" />
          </mxGeometry>
        </mxCell>
      </root>
    </mxGraphModel>
  </diagram>
</mxfile>
